<?xml version="1.0" encoding="utf-8"?>
<!-- Generator: Adobe Illustrator 19.2.1, SVG Export Plug-In . SVG Version: 6.00 Build 0)  -->
<svg version="1.1" id="Layer_1" xmlns="http://www.w3.org/2000/svg" xmlns:xlink="http://www.w3.org/1999/xlink" x="0px" y="0px"
	 width="90.78px" height="46px" viewBox="0 0 90.78 46" style="enable-background:new 0 0 90.78 46;" xml:space="preserve">
<style type="text/css">
	.st0{fill:#FFFFFF;}
	.st1{display:none;}
	.st2{display:inline;fill:#083050;}
</style>
<g>
	<path class="st0" d="M22.01,26.37c-0.25,0.03-0.53,0.03-0.81,0.03h-4.21V32H14V14h7.2c4.54,0,7.15,2.21,7.15,6.06
		c0,2.84-1.32,4.84-3.68,5.76L28.91,32h-3.4L22.01,26.37z M21.2,23.71c2.74,0,4.31-1.17,4.31-3.58c0-2.33-1.57-3.45-4.31-3.45h-4.21
		v7.02H21.2z"/>
	<path class="st0" d="M38.71,30.25C37.76,31.42,36.24,32,34.32,32c-2.87,0-4.66-1.77-4.66-4.11c0-2.42,1.82-3.96,5.01-3.99h4.01
		v-0.4c0-1.67-1.07-2.67-3.17-2.67c-1.27,0-2.59,0.45-3.91,1.35l-1.17-1.99c1.85-1.1,3.19-1.67,5.71-1.67
		c3.42,0,5.34,1.75,5.36,4.66L41.52,32h-2.82V30.25z M38.68,27.21v-1.22h-3.59c-1.87,0-2.74,0.5-2.74,1.77
		c0,1.2,0.97,1.97,2.57,1.97C36.96,29.73,38.53,28.66,38.68,27.21z"/>
	<path class="st0" d="M57.63,25.31c0,3.97-2.5,6.69-6.29,6.69c-2.12,0-3.72-0.85-4.69-2.4V32h-2.87V14h2.87v6.91
		c0.97-1.55,2.57-2.4,4.64-2.4C55.06,18.52,57.63,21.26,57.63,25.31z M54.73,25.21c0-2.47-1.67-4.29-4.04-4.29s-4.04,1.8-4.04,4.29
		c0,2.57,1.67,4.34,4.04,4.34S54.73,27.75,54.73,25.21z"/>
	<path class="st0" d="M62.02,15.51c0,0.86-0.63,1.49-1.45,1.49c-0.82,0-1.45-0.63-1.45-1.49c0-0.88,0.63-1.51,1.45-1.51
		C61.4,14,62.02,14.63,62.02,15.51z"/>
	<rect x="59.13" y="18.51" class="st0" width="2.89" height="13.49"/>
	<path class="st0" d="M73.28,18.51h3.19l-4.34,6.57L76.78,32h-3.35l-3.22-4.94L66.77,32h-3.25l4.77-6.92l-4.44-6.57h3.35l3.02,4.61
		L73.28,18.51z"/>
</g>
<g class="st1">
	<rect class="st2" width="14" height="14"/>
	<rect y="32" class="st2" width="14" height="14"/>
	<rect x="76.78" class="st2" width="14" height="14"/>
	<rect x="76.78" y="32" class="st2" width="14" height="14"/>
</g>
</svg>
