<?xml version="1.0" encoding="utf-8"?>
<!-- Generator: Adobe Illustrator 21.1.0, SVG Export Plug-In . SVG Version: 6.00 Build 0)  -->
<svg version="1.1" id="Layer_1" xmlns="http://www.w3.org/2000/svg" xmlns:xlink="http://www.w3.org/1999/xlink" x="0px" y="0px"
	 viewBox="0 0 1643.7 1116.8" style="enable-background:new 0 0 1643.7 1116.8;" xml:space="preserve">
<style type="text/css">
	.st0{display:none;fill:#E8E8E8;}
	.st1{display:none;fill:#999999;}
	.st2{fill:#11A7A7;}
	.st3{opacity:0.6;fill:none;stroke:#11A7A7;stroke-width:4;stroke-miterlimit:10;enable-background:new    ;}
	.st4{fill:none;stroke:#666666;stroke-width:16;stroke-miterlimit:10;}
	.st5{fill:none;stroke:#666666;stroke-width:8;stroke-miterlimit:10;}
	.st6{fill:#525252;}
	.st7{fill:#999999;}
</style>
<title>containers</title>
<circle class="st0" cx="58" cy="56.5" r="20.8"/>
<circle class="st1" cx="117.2" cy="56.5" r="20.8"/>
<circle class="st0" cx="176.5" cy="56.5" r="20.8"/>
<g>
	<g id="Layer_2">
		<g id="Layer_1-2">
			<path class="st2" d="M807.5,466.4v263.8H543.7V466.4H807.5 M814.6,459.4H536.7v277.9h277.9V459.4z"/>
			<path class="st2" d="M1078.5,466.4v263.8H814.7V466.4H1078.5 M1085.6,459.4h-278v277.9h278V459.4z"/>
			<path class="st2" d="M1349.8,466.4v263.8H1086V466.4H1349.8 M1356.8,459.4h-277.9v277.9h277.9V459.4z"/>
			<path class="st2" d="M1078.5,195.6v263.8H814.7V195.6H1078.5 M1085.6,188.5h-278v277.9h278V188.5z"/>
			<path class="st2" d="M536.4,737.5v263.8H272.6V737.5H536.4 M543.5,730.4H265.6v277.9h277.9V730.4z"/>
			<path class="st2" d="M807.5,737.5v263.8H543.7V737.5H807.5 M814.6,730.4H536.7v277.9h277.9V730.4z"/>
			<path class="st2" d="M1078.5,737.5v263.8H814.7V737.5H1078.5 M1085.6,730.4h-278v277.9h278V730.4z"/>
			<path class="st2" d="M1349.8,737.5v263.8H1086V737.5H1349.8 M1356.8,730.4h-277.9v277.9h277.9V730.4z"/>
			<g>
				<line class="st3" x1="558.9" y1="472.2" x2="558.9" y2="725"/>
				<line class="st3" x1="582.3" y1="472.2" x2="582.3" y2="725"/>
				<line class="st3" x1="605.7" y1="472.2" x2="605.7" y2="725"/>
				<line class="st3" x1="629.2" y1="472.2" x2="629.2" y2="725"/>
				<line class="st3" x1="652.6" y1="472.2" x2="652.6" y2="725"/>
				<line class="st3" x1="676" y1="472.2" x2="676" y2="725"/>
				<line class="st3" x1="699.5" y1="472.2" x2="699.5" y2="725"/>
				<line class="st3" x1="722.9" y1="472.2" x2="722.9" y2="725"/>
				<line class="st3" x1="746.3" y1="472.2" x2="746.3" y2="725"/>
				<line class="st3" x1="769.7" y1="472.2" x2="769.7" y2="725"/>
				<line class="st3" x1="793.2" y1="472.2" x2="793.2" y2="725"/>
				<line class="st3" x1="829.8" y1="472.2" x2="829.8" y2="725"/>
				<line class="st3" x1="853.3" y1="472.2" x2="853.3" y2="725"/>
				<line class="st3" x1="876.7" y1="472.2" x2="876.7" y2="725"/>
				<line class="st3" x1="900.1" y1="472.2" x2="900.1" y2="725"/>
				<line class="st3" x1="923.5" y1="472.2" x2="923.5" y2="725"/>
				<line class="st3" x1="947" y1="472.2" x2="947" y2="725"/>
				<line class="st3" x1="970.4" y1="472.2" x2="970.4" y2="725"/>
				<line class="st3" x1="993.8" y1="472.2" x2="993.8" y2="725"/>
				<line class="st3" x1="1017.3" y1="472.2" x2="1017.3" y2="725"/>
				<line class="st3" x1="1040.7" y1="472.2" x2="1040.7" y2="725"/>
				<line class="st3" x1="1064.1" y1="472.2" x2="1064.1" y2="725"/>
				<line class="st3" x1="1101.1" y1="472.2" x2="1101.1" y2="725"/>
				<line class="st3" x1="1124.5" y1="472.2" x2="1124.5" y2="725"/>
				<line class="st3" x1="1148" y1="472.2" x2="1148" y2="725"/>
				<line class="st3" x1="1171.4" y1="472.2" x2="1171.4" y2="725"/>
				<line class="st3" x1="1194.8" y1="472.2" x2="1194.8" y2="725"/>
				<line class="st3" x1="1218.3" y1="472.2" x2="1218.3" y2="725"/>
				<line class="st3" x1="1241.7" y1="472.2" x2="1241.7" y2="725"/>
				<line class="st3" x1="1265.1" y1="472.2" x2="1265.1" y2="725"/>
				<line class="st3" x1="1288.5" y1="472.2" x2="1288.5" y2="725"/>
				<line class="st3" x1="1312" y1="472.2" x2="1312" y2="725"/>
				<line class="st3" x1="1335.4" y1="472.2" x2="1335.4" y2="725"/>
				<line class="st3" x1="829.8" y1="201.3" x2="829.8" y2="454.1"/>
				<line class="st3" x1="853.3" y1="201.3" x2="853.3" y2="454.1"/>
				<line class="st3" x1="876.7" y1="201.3" x2="876.7" y2="454.1"/>
				<line class="st3" x1="900.1" y1="201.3" x2="900.1" y2="454.1"/>
				<line class="st3" x1="923.5" y1="201.3" x2="923.5" y2="454.1"/>
				<line class="st3" x1="947" y1="201.3" x2="947" y2="454.1"/>
				<line class="st3" x1="970.4" y1="201.3" x2="970.4" y2="454.1"/>
				<line class="st3" x1="993.8" y1="201.3" x2="993.8" y2="454.1"/>
				<line class="st3" x1="1017.3" y1="201.3" x2="1017.3" y2="454.1"/>
				<line class="st3" x1="1040.7" y1="201.3" x2="1040.7" y2="454.1"/>
				<line class="st3" x1="1064.1" y1="201.3" x2="1064.1" y2="454.1"/>
				<line class="st3" x1="287.8" y1="743.2" x2="287.8" y2="996"/>
				<line class="st3" x1="311.2" y1="743.2" x2="311.2" y2="996"/>
				<line class="st3" x1="334.6" y1="743.2" x2="334.6" y2="996"/>
				<line class="st3" x1="358" y1="743.2" x2="358" y2="996"/>
				<line class="st3" x1="381.5" y1="743.2" x2="381.5" y2="996"/>
				<line class="st3" x1="404.9" y1="743.2" x2="404.9" y2="996"/>
				<line class="st3" x1="428.3" y1="743.2" x2="428.3" y2="996"/>
				<line class="st3" x1="451.8" y1="743.2" x2="451.8" y2="996"/>
				<line class="st3" x1="475.2" y1="743.2" x2="475.2" y2="996"/>
				<line class="st3" x1="498.6" y1="743.2" x2="498.6" y2="996"/>
				<line class="st3" x1="522" y1="743.2" x2="522" y2="996"/>
				<line class="st3" x1="558.9" y1="743.2" x2="558.9" y2="996"/>
				<line class="st3" x1="582.3" y1="743.2" x2="582.3" y2="996"/>
				<line class="st3" x1="605.7" y1="743.2" x2="605.7" y2="996"/>
				<line class="st3" x1="629.2" y1="743.2" x2="629.2" y2="996"/>
				<line class="st3" x1="652.6" y1="743.2" x2="652.6" y2="996"/>
				<line class="st3" x1="676" y1="743.2" x2="676" y2="996"/>
				<line class="st3" x1="699.5" y1="743.2" x2="699.5" y2="996"/>
				<line class="st3" x1="722.9" y1="743.2" x2="722.9" y2="996"/>
				<line class="st3" x1="746.3" y1="743.2" x2="746.3" y2="996"/>
				<line class="st3" x1="769.7" y1="743.2" x2="769.7" y2="996"/>
				<line class="st3" x1="793.2" y1="743.2" x2="793.2" y2="996"/>
				<line class="st3" x1="829.8" y1="743.2" x2="829.8" y2="996"/>
				<line class="st3" x1="853.3" y1="743.2" x2="853.3" y2="996"/>
				<line class="st3" x1="876.7" y1="743.2" x2="876.7" y2="996"/>
				<line class="st3" x1="900.1" y1="743.2" x2="900.1" y2="996"/>
				<line class="st3" x1="923.5" y1="743.2" x2="923.5" y2="996"/>
				<line class="st3" x1="947" y1="743.2" x2="947" y2="996"/>
				<line class="st3" x1="970.4" y1="743.2" x2="970.4" y2="996"/>
				<line class="st3" x1="993.8" y1="743.2" x2="993.8" y2="996"/>
				<line class="st3" x1="1017.3" y1="743.2" x2="1017.3" y2="996"/>
				<line class="st3" x1="1040.7" y1="743.2" x2="1040.7" y2="996"/>
				<line class="st3" x1="1064.1" y1="743.2" x2="1064.1" y2="996"/>
				<line class="st3" x1="1101.1" y1="743.2" x2="1101.1" y2="996"/>
				<line class="st3" x1="1124.5" y1="743.2" x2="1124.5" y2="996"/>
				<line class="st3" x1="1148" y1="743.2" x2="1148" y2="996"/>
				<line class="st3" x1="1171.4" y1="743.2" x2="1171.4" y2="996"/>
				<line class="st3" x1="1194.8" y1="743.2" x2="1194.8" y2="996"/>
				<line class="st3" x1="1218.3" y1="743.2" x2="1218.3" y2="996"/>
				<line class="st3" x1="1241.7" y1="743.2" x2="1241.7" y2="996"/>
				<line class="st3" x1="1265.1" y1="743.2" x2="1265.1" y2="996"/>
				<line class="st3" x1="1288.5" y1="743.2" x2="1288.5" y2="996"/>
				<line class="st3" x1="1312" y1="743.2" x2="1312" y2="996"/>
				<line class="st3" x1="1335.4" y1="743.2" x2="1335.4" y2="996"/>
			</g>
		</g>
	</g>
	<rect x="8" y="8" class="st4" width="1627.7" height="1100.8"/>
	<line class="st5" x1="25.3" y1="97.5" x2="1618.4" y2="97.5"/>
	<circle class="st6" cx="56.1" cy="55.5" r="20.8"/>
	<circle class="st7" cx="115.3" cy="55.5" r="20.8"/>
	<circle class="st6" cx="174.6" cy="55.5" r="20.8"/>
</g>
</svg>
