<?xml version="1.0" encoding="utf-8"?>
<!-- Generator: Adobe Illustrator 21.0.2, SVG Export Plug-In . SVG Version: 6.00 Build 0)  -->
<svg version="1.1" id="Layer_1" xmlns="http://www.w3.org/2000/svg" xmlns:xlink="http://www.w3.org/1999/xlink" x="0px" y="0px"
	 viewBox="0 0 1650.7 1121" style="enable-background:new 0 0 1650.7 1121;" xml:space="preserve">
<style type="text/css">
	.st0{fill:#FFFFFF;}
	.st1{opacity:0.6;fill:none;stroke:#F7F1F0;stroke-width:4;stroke-miterlimit:10;}
	.st2{fill:none;stroke:#E8E8E8;stroke-width:16;stroke-miterlimit:10;}
	.st3{fill:none;stroke:#D1D1D1;stroke-width:8;stroke-miterlimit:10;}
	.st4{fill:#E8E8E8;}
	.st5{fill:#999999;}
</style>
<title>containers</title>
<g id="Layer_2">
	<g id="Layer_1-2">
		<path class="st0" d="M812.9,469.5v263.8H549.1V469.5H812.9 M820,462.5H542.1v277.9H820V462.5z"/>
		<path class="st0" d="M1083.9,469.5v263.8H820.1V469.5H1083.9 M1091,462.5H813v277.9H1091V462.5z"/>
		<path class="st0" d="M1355.2,469.5v263.8h-263.8V469.5H1355.2 M1362.2,462.5h-277.9v277.9h277.9V462.5z"/>
		<path class="st0" d="M1083.9,198.7v263.8H820.1V198.7H1083.9 M1091,191.6H813v277.9H1091V191.6z"/>
		<path class="st0" d="M541.8,740.6v263.8H278V740.6H541.8 M548.9,733.5H271v277.9h277.9V733.5z"/>
		<path class="st0" d="M812.9,740.6v263.8H549.1V740.6H812.9 M820,733.5H542.1v277.9H820V733.5z"/>
		<path class="st0" d="M1083.9,740.6v263.8H820.1V740.6H1083.9 M1091,733.5H813v277.9H1091V733.5z"/>
		<path class="st0" d="M1355.2,740.6v263.8h-263.8V740.6H1355.2 M1362.2,733.5h-277.9v277.9h277.9V733.5z"/>
		<g>
			<line class="st1" x1="564.3" y1="475.3" x2="564.3" y2="728.1"/>
			<line class="st1" x1="587.7" y1="475.3" x2="587.7" y2="728.1"/>
			<line class="st1" x1="611.1" y1="475.3" x2="611.1" y2="728.1"/>
			<line class="st1" x1="634.6" y1="475.3" x2="634.6" y2="728.1"/>
			<line class="st1" x1="658" y1="475.3" x2="658" y2="728.1"/>
			<line class="st1" x1="681.4" y1="475.3" x2="681.4" y2="728.1"/>
			<line class="st1" x1="704.9" y1="475.3" x2="704.9" y2="728.1"/>
			<line class="st1" x1="728.3" y1="475.3" x2="728.3" y2="728.1"/>
			<line class="st1" x1="751.7" y1="475.3" x2="751.7" y2="728.1"/>
			<line class="st1" x1="775.1" y1="475.3" x2="775.1" y2="728.1"/>
			<line class="st1" x1="798.6" y1="475.3" x2="798.6" y2="728.1"/>
			<line class="st1" x1="835.2" y1="475.3" x2="835.2" y2="728.1"/>
			<line class="st1" x1="858.7" y1="475.3" x2="858.7" y2="728.1"/>
			<line class="st1" x1="882.1" y1="475.3" x2="882.1" y2="728.1"/>
			<line class="st1" x1="905.5" y1="475.3" x2="905.5" y2="728.1"/>
			<line class="st1" x1="928.9" y1="475.3" x2="928.9" y2="728.1"/>
			<line class="st1" x1="952.4" y1="475.3" x2="952.4" y2="728.1"/>
			<line class="st1" x1="975.8" y1="475.3" x2="975.8" y2="728.1"/>
			<line class="st1" x1="999.2" y1="475.3" x2="999.2" y2="728.1"/>
			<line class="st1" x1="1022.7" y1="475.3" x2="1022.7" y2="728.1"/>
			<line class="st1" x1="1046.1" y1="475.3" x2="1046.1" y2="728.1"/>
			<line class="st1" x1="1069.5" y1="475.3" x2="1069.5" y2="728.1"/>
			<line class="st1" x1="1106.5" y1="475.3" x2="1106.5" y2="728.1"/>
			<line class="st1" x1="1129.9" y1="475.3" x2="1129.9" y2="728.1"/>
			<line class="st1" x1="1153.4" y1="475.3" x2="1153.4" y2="728.1"/>
			<line class="st1" x1="1176.8" y1="475.3" x2="1176.8" y2="728.1"/>
			<line class="st1" x1="1200.2" y1="475.3" x2="1200.2" y2="728.1"/>
			<line class="st1" x1="1223.7" y1="475.3" x2="1223.7" y2="728.1"/>
			<line class="st1" x1="1247.1" y1="475.3" x2="1247.1" y2="728.1"/>
			<line class="st1" x1="1270.5" y1="475.3" x2="1270.5" y2="728.1"/>
			<line class="st1" x1="1293.9" y1="475.3" x2="1293.9" y2="728.1"/>
			<line class="st1" x1="1317.4" y1="475.3" x2="1317.4" y2="728.1"/>
			<line class="st1" x1="1340.8" y1="475.3" x2="1340.8" y2="728.1"/>
			<line class="st1" x1="835.2" y1="204.4" x2="835.2" y2="457.2"/>
			<line class="st1" x1="858.7" y1="204.4" x2="858.7" y2="457.2"/>
			<line class="st1" x1="882.1" y1="204.4" x2="882.1" y2="457.2"/>
			<line class="st1" x1="905.5" y1="204.4" x2="905.5" y2="457.2"/>
			<line class="st1" x1="928.9" y1="204.4" x2="928.9" y2="457.2"/>
			<line class="st1" x1="952.4" y1="204.4" x2="952.4" y2="457.2"/>
			<line class="st1" x1="975.8" y1="204.4" x2="975.8" y2="457.2"/>
			<line class="st1" x1="999.2" y1="204.4" x2="999.2" y2="457.2"/>
			<line class="st1" x1="1022.7" y1="204.4" x2="1022.7" y2="457.2"/>
			<line class="st1" x1="1046.1" y1="204.4" x2="1046.1" y2="457.2"/>
			<line class="st1" x1="1069.5" y1="204.4" x2="1069.5" y2="457.2"/>
			<line class="st1" x1="293.2" y1="746.3" x2="293.2" y2="999.1"/>
			<line class="st1" x1="316.6" y1="746.3" x2="316.6" y2="999.1"/>
			<line class="st1" x1="340" y1="746.3" x2="340" y2="999.1"/>
			<line class="st1" x1="363.4" y1="746.3" x2="363.4" y2="999.1"/>
			<line class="st1" x1="386.9" y1="746.3" x2="386.9" y2="999.1"/>
			<line class="st1" x1="410.3" y1="746.3" x2="410.3" y2="999.1"/>
			<line class="st1" x1="433.7" y1="746.3" x2="433.7" y2="999.1"/>
			<line class="st1" x1="457.2" y1="746.3" x2="457.2" y2="999.1"/>
			<line class="st1" x1="480.6" y1="746.3" x2="480.6" y2="999.1"/>
			<line class="st1" x1="504" y1="746.3" x2="504" y2="999.1"/>
			<line class="st1" x1="527.4" y1="746.3" x2="527.4" y2="999.1"/>
			<line class="st1" x1="564.3" y1="746.3" x2="564.3" y2="999.1"/>
			<line class="st1" x1="587.7" y1="746.3" x2="587.7" y2="999.1"/>
			<line class="st1" x1="611.1" y1="746.3" x2="611.1" y2="999.1"/>
			<line class="st1" x1="634.6" y1="746.3" x2="634.6" y2="999.1"/>
			<line class="st1" x1="658" y1="746.3" x2="658" y2="999.1"/>
			<line class="st1" x1="681.4" y1="746.3" x2="681.4" y2="999.1"/>
			<line class="st1" x1="704.9" y1="746.3" x2="704.9" y2="999.1"/>
			<line class="st1" x1="728.3" y1="746.3" x2="728.3" y2="999.1"/>
			<line class="st1" x1="751.7" y1="746.3" x2="751.7" y2="999.1"/>
			<line class="st1" x1="775.1" y1="746.3" x2="775.1" y2="999.1"/>
			<line class="st1" x1="798.6" y1="746.3" x2="798.6" y2="999.1"/>
			<line class="st1" x1="835.2" y1="746.3" x2="835.2" y2="999.1"/>
			<line class="st1" x1="858.7" y1="746.3" x2="858.7" y2="999.1"/>
			<line class="st1" x1="882.1" y1="746.3" x2="882.1" y2="999.1"/>
			<line class="st1" x1="905.5" y1="746.3" x2="905.5" y2="999.1"/>
			<line class="st1" x1="928.9" y1="746.3" x2="928.9" y2="999.1"/>
			<line class="st1" x1="952.4" y1="746.3" x2="952.4" y2="999.1"/>
			<line class="st1" x1="975.8" y1="746.3" x2="975.8" y2="999.1"/>
			<line class="st1" x1="999.2" y1="746.3" x2="999.2" y2="999.1"/>
			<line class="st1" x1="1022.7" y1="746.3" x2="1022.7" y2="999.1"/>
			<line class="st1" x1="1046.1" y1="746.3" x2="1046.1" y2="999.1"/>
			<line class="st1" x1="1069.5" y1="746.3" x2="1069.5" y2="999.1"/>
			<line class="st1" x1="1106.5" y1="746.3" x2="1106.5" y2="999.1"/>
			<line class="st1" x1="1129.9" y1="746.3" x2="1129.9" y2="999.1"/>
			<line class="st1" x1="1153.4" y1="746.3" x2="1153.4" y2="999.1"/>
			<line class="st1" x1="1176.8" y1="746.3" x2="1176.8" y2="999.1"/>
			<line class="st1" x1="1200.2" y1="746.3" x2="1200.2" y2="999.1"/>
			<line class="st1" x1="1223.7" y1="746.3" x2="1223.7" y2="999.1"/>
			<line class="st1" x1="1247.1" y1="746.3" x2="1247.1" y2="999.1"/>
			<line class="st1" x1="1270.5" y1="746.3" x2="1270.5" y2="999.1"/>
			<line class="st1" x1="1293.9" y1="746.3" x2="1293.9" y2="999.1"/>
			<line class="st1" x1="1317.4" y1="746.3" x2="1317.4" y2="999.1"/>
			<line class="st1" x1="1340.8" y1="746.3" x2="1340.8" y2="999.1"/>
		</g>
	</g>
</g>
<rect x="13.4" y="11.1" class="st2" width="1627.7" height="1100.8"/>
<line class="st3" x1="30.7" y1="100.6" x2="1623.8" y2="100.6"/>
<circle class="st4" cx="61.5" cy="58.6" r="20.8"/>
<circle class="st5" cx="120.7" cy="58.6" r="20.8"/>
<circle class="st4" cx="180" cy="58.6" r="20.8"/>
</svg>
