<svg xmlns="http://www.w3.org/2000/svg" viewBox="0 0 1643.69 1116.8"><defs><style>.cls-1{fill:#fff;}.cls-14,.cls-2,.cls-3{fill:none;stroke-miterlimit:10;}.cls-2{stroke:#666;stroke-width:16px;}.cls-3{stroke:#a3a3a3;stroke-width:8px;}.cls-4{fill:#525252;}.cls-5{fill:#999;}.cls-6{fill:#e5e5e5;}.cls-7{fill:#f4f4f4;}.cls-8{fill:#f7f7f7;}.cls-9{fill:#b7b7b7;}.cls-10{fill:#5b5b5b;}.cls-11{fill:#707070;}.cls-12{fill:#7a7a7a;}.cls-13{fill:#dbdbdb;}.cls-14{stroke:#b7b7b7;}</style></defs><title>cottontail</title><g id="Layer_2" data-name="Layer 2"><g id="Layer_1-2" data-name="Layer 1"><rect class="cls-1" x="391.18" y="184.94" width="1226.2" height="908.62"/><rect class="cls-2" x="8" y="8" width="1627.69" height="1100.8"/><line class="cls-3" x1="25.32" y1="97.47" x2="1618.38" y2="97.47"/><circle class="cls-4" cx="56.08" cy="55.52" r="20.76"/><circle class="cls-5" cx="115.35" cy="55.52" r="20.76"/><circle class="cls-4" cx="174.61" cy="55.52" r="20.76"/><polygon class="cls-4" points="1617.38 117.79 391.18 117.79 390.21 117.79 25.32 117.79 25.32 1093.56 391.18 1093.56 391.18 184.94 1617.38 184.94 1617.38 117.79"/><rect class="cls-6" x="391.18" y="223.68" width="853.64" height="869.88"/><rect class="cls-7" x="1264.3" y="223.68" width="354.08" height="869.88"/><rect class="cls-8" x="428.25" y="262.23" width="777.16" height="136.28"/><rect class="cls-8" x="428.25" y="427.42" width="777.16" height="282.86"/><rect class="cls-8" x="429.42" y="739.2" width="777.16" height="326.34"/><rect class="cls-9" x="1251.62" y="245.73" width="6.73" height="282.86"/><rect class="cls-9" x="429.25" y="427.42" width="6.73" height="282.86"/><rect class="cls-9" x="429.25" y="739.2" width="6.73" height="326.34"/><rect class="cls-10" x="25.32" y="185.73" width="51.53" height="216.78"/><rect class="cls-10" x="25.32" y="619.28" width="51.53" height="216.78"/><rect class="cls-11" x="25.32" y="402.51" width="51.53" height="216.78"/><rect class="cls-12" x="76.84" y="185.53" width="314.34" height="32.85"/><path class="cls-5" d="M406.61,185.53h81.85a0,0,0,0,1,0,0v32.85a0,0,0,0,1,0,0h-82a8,8,0,0,1-8-8V193.63A8.1,8.1,0,0,1,406.61,185.53Z"/><rect class="cls-12" x="488.29" y="185.53" width="89.96" height="32.85"/><path class="cls-5" d="M578.13,185.53H660a8,8,0,0,1,8,8v16.75a8.06,8.06,0,0,1-8.06,8.06h-81.9a0,0,0,0,1,0,0V185.53A0,0,0,0,1,578.13,185.53Z"/><rect class="cls-13" x="94.58" y="238.1" width="124.56" height="11.99"/><rect class="cls-13" x="133.1" y="276.07" width="208.67" height="11.99"/><rect class="cls-9" x="457.87" y="288.12" width="208.67" height="18.31"/><rect class="cls-9" x="1281.97" y="240.94" width="208.67" height="18.31"/><rect class="cls-9" x="1280.13" y="489.32" width="140.09" height="18.31"/><rect class="cls-9" x="457.87" y="768.89" width="208.67" height="18.31"/><rect class="cls-9" x="457.87" y="836.06" width="49.46" height="18.31"/><rect class="cls-9" x="686.24" y="836.06" width="102.92" height="18.31"/><rect class="cls-9" x="933.27" y="836.06" width="76.83" height="18.31"/><rect class="cls-9" x="457.87" y="453.21" width="288.06" height="18.31"/><rect class="cls-9" x="457.87" y="596.52" width="165.24" height="18.31"/><rect class="cls-13" x="133.1" y="306.43" width="196.35" height="11.99"/><rect class="cls-13" x="133.1" y="336.8" width="208.67" height="11.99"/><rect class="cls-13" x="133.1" y="367.16" width="208.67" height="11.99"/><rect class="cls-13" x="133.1" y="397.53" width="148.06" height="11.99"/><rect class="cls-13" x="133.1" y="427.9" width="174.81" height="11.99"/><polygon class="cls-1" points="713.24 135.85 411.18 135.85 391.18 185.53 733.24 185.53 713.24 135.85"/><line class="cls-14" x1="430.43" y1="568.85" x2="1203.22" y2="568.85"/><line class="cls-14" x1="1264.3" y1="276.07" x2="1618.38" y2="276.07"/><rect class="cls-1" x="459.3" y="348.79" width="713.77" height="30.37"/><rect class="cls-1" x="1280.13" y="315.18" width="322.43" height="30.37"/><rect class="cls-1" x="1280.13" y="371.98" width="322.43" height="30.37"/><rect class="cls-1" x="1280.13" y="428.78" width="322.43" height="30.37"/><rect class="cls-6" x="459.3" y="507.63" width="713.77" height="30.37"/><rect class="cls-6" x="459.3" y="861.27" width="713.77" height="30.37"/><rect class="cls-6" x="459.3" y="915.57" width="713.77" height="30.37"/><rect class="cls-6" x="459.3" y="666.19" width="317.06" height="30.37"/><rect class="cls-6" x="459.3" y="969.88" width="317.06" height="30.37"/><rect class="cls-6" x="856.01" y="666.19" width="317.06" height="30.37"/></g></g></svg>